<svg width="669" height="523" xmlns="http://www.w3.org/2000/svg" data-name="Layer 1">

    <g>
        <title>Layer 1</title>
        <g stroke="null" id="svg_21">
            <path stroke="null" id="svg_1" fill="#0047ab"
                d="m139.79168,478.69631l-62.09475,0a6.34945,6.31008 0 0 1 -6.34238,-6.30254l0,-203.32935a6.34945,6.31008 0 0 1 6.34238,-6.30254l62.09475,0a6.34945,6.31008 0 0 1 6.34238,6.30254l0,203.32935a6.34945,6.31008 0 0 1 -6.34238,6.30254z" />
            <path stroke="null" id="svg_2" fill="#0047ab"
                d="m253.02923,478.69631l-62.09475,0a6.34945,6.31008 0 0 1 -6.34238,-6.30254l0,-284.01512a6.34946,6.31009 0 0 1 6.34238,-6.30255l62.09475,0a6.34946,6.31009 0 0 1 6.34238,6.30255l0,284.01512a6.34945,6.31008 0 0 1 -6.34238,6.30254z" />
            <path stroke="null" id="svg_3" fill="#0047ab"
                d="m366.26678,478.69631l-62.09475,0a6.34945,6.31008 0 0 1 -6.34238,-6.30254l0,-203.32935a6.34945,6.31008 0 0 1 6.34238,-6.30254l62.09475,0a6.34945,6.31008 0 0 1 6.34238,6.30254l0,203.32935a6.34945,6.31008 0 0 1 -6.34238,6.30254z" />
            <path stroke="null" id="svg_4" fill="#0047ab"
                d="m479.50433,478.69631l-62.09475,0a6.21067,6.17216 0 0 1 -6.34238,-6.01702l0,-316.43582a6.21067,6.17216 0 0 1 6.34238,-6.01702l62.09475,0a6.21067,6.17216 0 0 1 6.34238,6.01702l0,316.43582a6.21067,6.17216 0 0 1 -6.34238,6.01702z" />
            <path stroke="null" id="svg_5" fill="#0047ab"
                d="m592.74188,478.69631l-62.09478,0a6.34945,6.31008 0 0 1 -6.34238,-6.30254l0,-373.19415a6.34945,6.31008 0 0 1 6.34238,-6.30254l62.09475,0a6.34945,6.31008 0 0 1 6.34238,6.30254l0,373.19415a6.34945,6.31008 0 0 1 -6.34235,6.30254z" />
            <circle stroke="null" id="svg_6" fill="#fbd305" r="12.73986" cy="224.54231" cx="108.74432" />
            <circle stroke="null" id="svg_7" fill="#fbd305" r="12.73987" cy="141.73321" cx="221.98187" />
            <circle stroke="null" id="svg_8" fill="#fbd305" r="12.73986" cy="224.54231" cx="335.21941" />
            <circle stroke="null" id="svg_9" fill="#fbd305" r="12.73987" cy="101.39032" cx="448.45696" />
            <circle stroke="null" id="svg_10" fill="#fbd305" r="12.73987" cy="54.6775" cx="561.69451" />
            <path stroke="null" id="svg_11" fill="#cbcbcb"
                d="m665.50552,481.06239l-662,0a1,0.9938 0 1 1 0,-1.9876l662,0a1,0.9938 0 0 1 0,1.9876z" />
            <polygon stroke="null" id="svg_12" fill="#3f3d56"
                points="108.06053161621094,225.3393669128418 106.86653137207031,223.74531173706055 221.98251342773438,138.57372665405273 334.853515625,222.2417106628418 449.2695617675781,98.78794479370117 449.4745178222656,98.7044792175293 560.5145263671875,53.15962600708008 561.2774658203125,54.99716567993164 450.4415588378906,100.4575309753418 335.1025085449219,224.90607833862305 221.98150634765625,141.0522575378418 108.06053161621094,225.3393669128418 " />
        </g>
    </g>
</svg>